PathFileType	4	(X/Y/Z)	1H_rest_slow_right.trc
DataRate	CameraRate	NumFrames	NumMarkers	Units	OrigDataRate	OrigDataStartFrame	OrigNumFrames
250.00	250.00	21	18	mm	250.00	2648	21182
Frame#	Time	c7	r_should	l_should	clavicle	r_upa	r_elb_l	r_elb_m	r_low	r_wri_l	r_wri_m	r_met	l_upa	l_elb_l	l_elb_m	l_low	l_wri_l	l_wri_m	l_met
	X1	Y1	Z1	X2	Y2	Z2	X3	Y3	Z3	X4	Y4	Z4	X5	Y5	Z5	X6	Y6	Z6	X7	Y7	Z7	X8	Y8	Z8	X9	Y9	Z9	X10	Y10	Z10	X11	Y11	Z11	X12	Y12	Z12	X13	Y13	Z13	X14	Y14	Z14	X15	Y15	Z15	X16	Y16	Z16	X17	Y17	Z17	X18	Y18	Z18
2648	10.58800	618.36719	1417.89429	301.87646	685.12903	1351.99353	439.45413	646.32507	1380.58923	123.41669	743.13367	1279.40662	266.14844	700.48169	1140.96753	494.10742	704.12170	1049.61230	511.95251	656.31665	1013.12170	435.06653	739.02930	863.19250	514.86871	760.21075	794.30603	497.15945	685.90912	779.59412	505.86526	783.43372	730.67346	550.30090	626.12762	1198.86938	35.35964	630.38306	1091.53894	16.70902	579.60516	1054.32678	79.20394	667.41742	928.02155	14.85297	696.46014	854.87042	47.60671	631.99963	835.87891	18.11055	725.49548	768.95148	15.02671
2649	10.59200	618.37573	1417.89441	301.88745	685.09198	1351.98462	439.48502	646.38403	1380.57837	123.43243	743.14319	1279.39050	266.19281	700.40002	1140.94641	494.12219	704.00476	1049.59583	511.96094	656.25836	1013.11243	435.04495	738.85663	863.15234	514.92920	760.00354	794.24438	497.24316	685.68634	779.58514	505.95117	783.18182	730.57990	550.37238	626.20673	1198.86023	35.36815	630.45776	1091.52979	16.72506	579.67212	1054.31543	79.19759	667.46307	928.00305	14.86722	696.48895	854.84607	47.62515	632.03302	835.87042	18.11046	725.52423	768.92072	15.05199
2650	10.59600	618.38489	1417.89441	301.89737	685.05719	1351.97314	439.52072	646.43799	1380.56555	123.45126	743.15228	1279.37585	266.23746	700.31616	1140.92065	494.13525	703.88904	1049.57776	511.98016	656.19434	1013.10358	435.03665	738.68567	863.11584	514.98889	759.79327	794.18396	497.32532	685.45306	779.58374	506.04074	782.94037	730.48181	550.44470	626.29327	1198.84875	35.38197	630.53369	1091.51672	16.74392	579.73492	1054.30615	79.19336	667.51385	927.98309	14.88121	696.52179	854.82477	47.64214	632.06970	835.86414	18.11310	725.55347	768.89252	15.07973
2651	10.60000	618.39020	1417.89294	301.90497	685.02222	1351.96594	439.55789	646.49182	1380.55640	123.46709	743.16748	1279.36194	266.27951	700.22906	1140.89685	494.15204	703.77417	1049.55884	512.00433	656.12665	1013.08679	435.03073	738.51849	863.08502	515.04486	759.58179	794.12964	497.41122	685.23773	779.57751	506.14267	782.69232	730.38342	550.52020	626.37567	1198.83582	35.40432	630.61389	1091.50317	16.76671	579.79883	1054.29761	79.18786	667.56995	927.95947	14.90054	696.55652	854.80011	47.66043	632.10614	835.85522	18.11401	725.58557	768.85858	15.11331
2652	10.60400	618.39771	1417.88538	301.90701	684.98419	1351.95947	439.58307	646.54517	1380.54663	123.48100	743.17578	1279.35217	266.31903	700.15015	1140.87817	494.17447	703.65698	1049.54724	512.03284	656.05829	1013.07806	435.02890	738.34930	863.05682	515.10706	759.37164	794.08002	497.49930	685.03088	779.56604	506.23001	782.45221	730.28900	550.59021	626.44757	1198.82959	35.41649	630.69141	1091.49341	16.78807	579.85687	1054.29065	79.18942	667.62415	927.94269	14.91678	696.59088	854.77844	47.68250	632.14398	835.84686	18.12207	725.61621	768.83398	15.14993
2653	10.60800	618.40552	1417.88440	301.91180	684.94568	1351.95032	439.60440	646.59247	1380.54297	123.49609	743.18256	1279.34314	266.35986	700.06458	1140.86304	494.19800	703.53839	1049.53540	512.06256	655.98682	1013.07166	435.03372	738.17285	863.03009	515.17365	759.17432	794.03760	497.58511	684.83679	779.55072	506.31476	782.21393	730.20087	550.65955	626.50934	1198.82336	35.42864	630.76147	1091.48193	16.80404	579.90601	1054.28723	79.19102	667.67993	927.93073	14.94038	696.62592	854.76434	47.70411	632.18298	835.83954	18.12886	725.65204	768.81403	15.18218
2654	10.61200	618.40991	1417.88550	301.92178	684.90900	1351.94592	439.63266	646.63403	1380.54407	123.50872	743.18988	1279.33740	266.39410	699.98004	1140.85278	494.22110	703.41901	1049.52954	512.09271	655.90540	1013.06830	435.04108	738.00073	863.00726	515.23358	758.98315	794.00208	497.67172	684.64307	779.53455	506.39981	781.97363	730.11914	550.72626	626.57092	1198.81873	35.43650	630.82513	1091.47473	16.81749	579.94940	1054.28235	79.19554	667.73663	927.91833	14.96302	696.66162	854.75323	47.72459	632.22180	835.83295	18.13513	725.68634	768.79736	15.21081
2655	10.61600	618.41443	1417.88574	301.92477	684.86548	1351.94446	439.66742	646.67529	1380.53870	123.52097	743.19373	1279.33459	266.42261	699.89160	1140.84607	494.24936	703.29474	1049.52283	512.13019	655.81219	1013.06140	435.05884	737.82684	862.98932	515.29602	758.79407	793.96777	497.75693	684.44965	779.51678	506.47855	781.74243	730.04022	550.79791	626.62500	1198.81421	35.44643	630.88715	1091.47058	16.83412	579.99371	1054.28125	79.19353	667.79114	927.90833	14.98219	696.69220	854.74384	47.74850	632.26562	835.81958	18.14660	725.72003	768.78540	15.24002
2656	10.62000	618.41595	1417.88220	301.92731	684.82758	1351.94214	439.69846	646.72443	1380.53882	123.53412	743.19543	1279.32971	266.45935	699.79932	1140.83667	494.28397	703.17560	1049.51489	512.16931	655.72107	1013.05817	435.08942	737.64661	862.96796	515.37860	758.61157	793.93750	497.84033	684.25665	779.50873	506.56461	781.51068	729.95959	550.87006	626.68073	1198.80920	35.45470	630.95227	1091.46057	16.86296	580.03375	1054.27979	79.19168	667.84308	927.89807	15.00068	696.72546	854.73059	47.77588	632.30585	835.81195	18.15524	725.75568	768.76941	15.27828
2657	10.62400	618.41382	1417.87939	301.93030	684.78833	1351.93591	439.72769	646.76550	1380.53040	123.54715	743.19446	1279.32190	266.49750	699.70026	1140.81909	494.31870	703.06024	1049.50623	512.21649	655.62524	1013.05353	435.11752	737.46790	862.94055	515.46594	758.43335	793.90277	497.92865	684.05750	779.50488	506.65097	781.28241	729.87390	550.93921	626.73737	1198.80176	35.46707	631.01428	1091.44836	16.88745	580.07819	1054.26953	79.19721	667.89697	927.88531	15.02466	696.75787	854.71722	47.80410	632.34674	835.80707	18.17003	725.79498	768.75049	15.31749
2658	10.62800	618.41486	1417.87585	301.93585	684.74768	1351.92334	439.75797	646.80859	1380.51819	123.56071	743.19238	1279.30823	266.53693	699.60345	1140.80469	494.35818	702.94397	1049.50305	512.26532	655.52509	1013.04248	435.15439	737.29242	862.91382	515.55341	758.25739	793.86859	498.02304	683.86603	779.49365	506.73889	781.05505	729.78644	551.01111	626.79285	1198.78711	35.47999	631.07843	1091.43762	16.90923	580.13123	1054.26233	79.20853	667.95044	927.86908	15.05374	696.79358	854.70245	47.83552	632.39160	835.79382	18.18896	725.83636	768.73108	15.35706
2659	10.63200	618.41632	1417.87415	301.93982	684.70984	1351.90771	439.78601	646.84985	1380.51001	123.57298	743.19086	1279.29041	266.57516	699.50677	1140.78979	494.40115	702.82898	1049.49854	512.31946	655.43182	1013.03241	435.19275	737.11523	862.87915	515.64178	758.07153	793.83441	498.10742	683.67212	779.49182	506.83301	780.83472	729.69531	551.07855	626.84631	1198.77319	35.49322	631.14105	1091.41919	16.93669	580.17853	1054.25000	79.21348	668.00171	927.84955	15.08092	696.83307	854.68719	47.86920	632.43915	835.78412	18.20622	725.88025	768.71155	15.39486
2660	10.63600	618.41455	1417.86523	301.94427	684.67523	1351.89038	439.81149	646.88812	1380.49500	123.58781	743.18842	1279.27258	266.60931	699.39905	1140.77356	494.45383	702.71442	1049.48804	512.37653	655.34009	1013.01624	435.22778	736.94482	862.84253	515.73004	757.88141	793.79364	498.18539	683.47961	779.48798	506.92636	780.61902	729.60449	551.14124	626.89587	1198.76294	35.51163	631.19653	1091.39746	16.95907	580.22394	1054.23071	79.21987	668.04932	927.82892	15.10745	696.87238	854.67230	47.90058	632.48389	835.77887	18.22571	725.92340	768.68909	15.43616
2661	10.64000	618.41168	1417.85547	301.95056	684.63678	1351.87695	439.83383	646.92889	1380.48181	123.60535	743.18298	1279.25769	266.64703	699.29614	1140.75708	494.51022	702.60242	1049.47778	512.43372	655.24585	1013.00360	435.26471	736.78381	862.80841	515.80798	757.68732	793.74866	498.26895	683.28882	779.47827	507.01666	780.39789	729.51501	551.20862	626.94751	1198.75220	35.52298	631.24628	1091.38135	16.98225	580.25806	1054.21863	79.23237	668.09827	927.80945	15.13498	696.91443	854.65906	47.93664	632.53015	835.76782	18.24494	725.96600	768.67413	15.47995
2662	10.64400	618.40991	1417.84753	301.95792	684.59448	1351.86816	439.86334	646.96460	1380.47266	123.62147	743.17834	1279.24377	266.68756	699.19421	1140.74365	494.56125	702.48596	1049.46887	512.49109	655.14447	1012.99872	435.30893	736.62683	862.78229	515.88062	757.49066	793.71307	498.35782	683.09589	779.46661	507.09796	780.17297	729.42902	551.27234	626.99030	1198.74036	35.53218	631.29187	1091.36792	17.00191	580.30548	1054.20117	79.23903	668.14978	927.79968	15.16807	696.95319	854.64929	47.97382	632.57599	835.75525	18.27056	726.01685	768.66296	15.52599
2663	10.64800	618.40710	1417.83972	301.96750	684.55420	1351.85962	439.89401	646.99481	1380.46155	123.63854	743.17401	1279.23438	266.72784	699.09235	1140.73535	494.61465	702.36639	1049.45483	512.54333	655.04871	1012.99023	435.35110	736.46509	862.75525	515.95245	757.29407	793.67365	498.44196	682.89795	779.46362	507.18201	779.94940	729.34412	551.32831	627.02814	1198.72815	35.55218	631.33411	1091.36243	17.02350	580.34302	1054.19092	79.24658	668.19653	927.79114	15.19731	696.99048	854.64502	48.01133	632.62201	835.74066	18.30134	726.06586	768.66241	15.57008
2664	10.65200	618.40558	1417.83545	301.97949	684.51758	1351.85718	439.92822	647.02625	1380.45752	123.65694	743.16833	1279.23157	266.76270	699.00079	1140.73108	494.66656	702.25433	1049.44971	512.59686	654.95190	1012.98486	435.38678	736.29437	862.73248	516.02338	757.10645	793.63867	498.52081	682.70404	779.46613	507.26761	779.72968	729.26367	551.38129	627.06409	1198.71814	35.56964	631.37341	1091.36169	17.04118	580.37244	1054.18298	79.25746	668.24268	927.78925	15.22559	697.02899	854.64612	48.04564	632.66492	835.73248	18.33466	726.10864	768.66864	15.61320
2665	10.65600	618.40167	1417.83472	301.99734	684.47113	1351.86572	439.96417	647.05823	1380.45593	123.67197	743.15778	1279.22742	266.80032	698.90491	1140.72534	494.71500	702.14514	1049.44751	512.64764	654.85248	1012.98871	435.42392	736.12616	862.71918	516.09753	756.92023	793.61438	498.59714	682.51538	779.46332	507.35141	779.51074	729.19208	551.43384	627.10095	1198.71985	35.57471	631.40924	1091.36121	17.06057	580.39398	1054.18347	79.26896	668.28821	927.79614	15.25890	697.06439	854.64807	48.08932	632.71051	835.72314	18.37010	726.15515	768.67725	15.65988
2666	10.66000	618.39105	1417.82666	302.01178	684.42303	1351.86731	439.99527	647.08533	1380.45068	123.69232	743.14465	1279.22107	266.84131	698.81409	1140.72583	494.75809	702.04462	1049.44690	512.68964	654.75116	1012.99988	435.45782	735.96069	862.70959	516.15967	756.74036	793.58960	498.67087	682.33417	779.46100	507.43665	779.29010	729.12512	551.48926	627.13672	1198.72327	35.58558	631.44293	1091.36548	17.07260	580.40662	1054.18835	79.28263	668.32684	927.80054	15.29238	697.10339	854.64990	48.13688	632.75751	835.71136	18.41194	726.20215	768.68811	15.70685
2667	10.66400	618.37781	1417.81848	302.02759	684.37750	1351.86890	440.02344	647.11346	1380.44922	123.71526	743.13104	1279.21582	266.88248	698.73260	1140.72693	494.80139	701.94781	1049.44629	512.72449	654.65674	1013.01099	435.48734	735.79907	862.69720	516.21600	756.56311	793.56860	498.74405	682.15912	779.46753	507.52246	779.07520	729.06348	551.54449	627.16956	1198.71948	35.60996	631.47754	1091.36768	17.09194	580.42462	1054.19299	79.29849	668.36322	927.80188	15.32615	697.14490	854.65680	48.18584	632.80334	835.70044	18.46048	726.25031	768.69189	15.76374
2668	10.66800	618.36444	1417.81189	302.04868	684.32983	1351.87512	440.06149	647.14362	1380.44482	123.73589	743.11615	1279.21057	266.92636	698.65399	1140.73206	494.84006	701.85394	1049.44678	512.75623	654.57117	1013.02551	435.51172	735.64191	862.68335	516.26886	756.38580	793.54761	498.81601	681.98755	779.46649	507.59863	778.86176	729.00238	551.60199	627.20245	1198.71362	35.63325	631.51050	1091.36865	17.11199	580.44611	1054.19006	79.31549	668.39874	927.80017	15.36274	697.18457	854.66193	48.23840	632.84790	835.69025	18.50951	726.29761	768.69513	15.82702
